<?xml version="1.0" standalone="no"?>
<!DOCTYPE svg PUBLIC "-//W3C//DTD SVG 20010904//EN"
 "http://www.w3.org/TR/2001/REC-SVG-20010904/DTD/svg10.dtd">
<svg version="1.0" xmlns="http://www.w3.org/2000/svg"
 width="1200.000000pt" height="628.000000pt" viewBox="0 0 1200.000000 628.000000"
 preserveAspectRatio="xMidYMid meet">

<g transform="translate(0.000000,628.000000) scale(0.100000,-0.100000)"
fill="#000000" stroke="none">
<path d="M5395 3995 c-33 -8 -72 -18 -87 -24 -17 -6 -29 -7 -33 -1 -4 6 -95
10 -224 10 l-217 0 -65 -53 c-74 -61 -110 -87 -121 -87 -5 0 -8 24 -8 54 0 92
16 86 -224 86 l-212 0 -40 -30 c-49 -37 -67 -39 -54 -6 5 13 6 27 3 30 -4 3
-91 6 -194 6 l-187 0 -59 -44 c-33 -24 -69 -49 -81 -55 -21 -11 -22 -10 -22
28 0 74 10 71 -205 71 l-193 0 -48 -40 c-27 -22 -54 -40 -60 -40 -6 0 -14 17
-18 39 l-6 39 -312 7 c-172 4 -501 5 -732 3 l-419 -5 -51 -41 c-28 -23 -56
-42 -62 -42 -6 0 -15 19 -20 43 l-9 42 -203 3 -203 2 -42 -29 c-23 -16 -82
-63 -131 -105 -48 -42 -108 -90 -132 -107 -32 -21 -46 -40 -53 -67 -5 -20 -41
-161 -80 -312 -38 -151 -97 -376 -131 -500 -68 -249 -140 -533 -140 -550 0 -6
62 -10 181 -10 l182 0 66 54 c68 55 120 91 122 85 1 -2 6 -33 13 -69 l11 -65
179 -3 179 -2 29 27 29 28 19 -25 18 -24 354 -4 354 -3 76 55 c42 31 79 56 82
56 4 0 4 -22 0 -50 -6 -48 -5 -50 17 -51 13 0 96 -1 185 -1 l161 -1 74 55 c76
57 118 82 124 76 3 -2 -2 -32 -11 -67 -8 -35 -13 -65 -12 -67 2 -1 84 -4 184
-6 l180 -3 70 56 c38 30 119 93 180 138 l111 82 83 177 c46 97 129 274 185
392 56 118 114 241 129 273 15 31 31 57 35 57 5 0 11 -24 14 -52 3 -29 19
-159 36 -289 l30 -237 -34 -123 c-20 -68 -54 -194 -76 -279 -22 -85 -42 -163
-45 -172 -5 -17 9 -18 198 -18 l203 0 100 78 c55 43 114 88 132 100 l32 23 12
-23 c21 -40 103 -120 144 -140 64 -33 134 -48 228 -48 127 0 210 22 355 96 69
35 127 62 129 60 3 -2 0 -30 -6 -62 -6 -32 -11 -64 -11 -71 0 -10 39 -13 186
-13 l187 0 46 34 c26 18 58 39 71 46 23 12 23 12 17 -34 l-7 -46 338 -2 c525
-4 458 -11 546 55 42 32 83 60 90 63 12 5 32 -36 52 -103 3 -10 56 -13 223
-13 l220 0 144 118 c79 64 157 128 175 142 l31 25 -79 355 c-44 195 -81 366
-82 380 -2 25 142 219 394 533 43 53 78 102 78 107 0 6 -81 10 -217 10 l-217
0 -76 -58 c-108 -84 -104 -83 -96 -31 4 24 9 54 13 67 l5 22 -217 0 -217 0
-35 -30 c-18 -16 -38 -30 -44 -30 -5 0 -28 12 -51 28 l-42 27 -379 2 -379 3
-42 -35 c-24 -19 -46 -35 -49 -35 -3 0 -27 13 -54 30 -103 64 -330 90 -488 55z
m401 -50 c104 -53 129 -147 85 -316 -119 -459 -205 -759 -228 -798 -92 -157
-269 -237 -506 -230 -103 4 -118 7 -179 37 -155 76 -154 89 54 852 59 219 86
276 165 351 111 106 217 141 419 136 124 -2 135 -4 190 -32z m-4401 -27 c3 -7
16 -110 30 -228 39 -337 46 -379 57 -350 5 14 41 133 79 265 39 132 76 258 83
280 l14 40 116 3 c91 2 118 0 122 -11 2 -7 -20 -108 -51 -223 -68 -252 -250
-918 -271 -991 l-15 -53 -140 0 c-160 0 -141 -16 -159 135 -6 50 -15 126 -20
170 -6 44 -17 139 -25 210 -8 72 -18 144 -22 160 l-6 30 -14 -40 c-8 -22 -43
-143 -79 -270 -36 -126 -76 -267 -90 -312 l-25 -83 -114 0 c-63 0 -116 4 -119
9 -6 8 62 282 239 969 l78 302 164 0 c122 0 165 -3 168 -12z m1585 -5 c0 -23
-38 -469 -46 -548 -5 -42 -3 -57 4 -50 6 6 73 145 149 310 l139 300 142 3
c136 2 142 2 142 -17 0 -17 -27 -348 -45 -544 -3 -33 -1 -56 4 -53 9 6 70 127
226 454 l78 162 130 0 c99 0 128 -3 124 -12 -7 -18 -287 -616 -402 -858 -53
-113 -117 -249 -142 -302 l-45 -97 -66 -7 c-59 -6 -199 0 -208 9 -2 2 10 147
27 322 16 175 28 332 27 349 -4 29 -6 26 -40 -44 -20 -41 -94 -201 -163 -355
-70 -154 -128 -281 -130 -283 -2 -2 -65 0 -140 4 l-138 7 7 181 c3 100 13 273
20 386 8 113 18 267 22 343 l7 137 -190 0 -189 0 -27 -82 c-15 -46 -35 -111
-46 -145 l-19 -63 169 0 c193 0 184 6 154 -95 -9 -27 -20 -67 -26 -87 l-10
-38 -164 0 c-150 0 -165 -2 -174 -19 -6 -10 -26 -76 -46 -147 -20 -71 -38
-137 -41 -146 -5 -17 8 -18 180 -18 102 0 186 -4 186 -8 0 -8 -50 -159 -65
-195 -7 -17 -28 -18 -325 -15 -175 2 -321 6 -325 10 -7 7 209 853 311 1216
l15 52 474 0 c446 0 475 -1 475 -17z m1596 4 c2 -1 11 -104 21 -227 l18 -225
60 95 c34 52 97 155 140 228 l80 132 143 0 143 0 -12 -22 c-13 -25 -439 -665
-470 -707 -11 -15 -33 -76 -49 -136 -16 -61 -48 -175 -72 -255 l-43 -145 -143
-3 -143 -3 7 28 c17 77 39 163 81 317 33 124 44 178 39 205 -11 62 -46 298
-71 486 -14 99 -28 192 -31 207 -5 24 -2 27 28 31 32 5 269 0 274 -6z m2149 3
c37 -6 77 -17 89 -25 73 -48 66 -150 -30 -456 -16 -50 -57 -94 -121 -129 -43
-24 -55 -40 -29 -40 7 0 25 -10 40 -21 53 -42 53 -52 -19 -308 -37 -130 -70
-247 -74 -261 -8 -25 -9 -25 -137 -28 -71 -1 -139 0 -152 3 -28 7 -28 5 34
258 24 98 44 191 44 208 0 38 -27 49 -120 49 l-69 0 -25 -77 c-13 -43 -40
-139 -61 -213 -20 -74 -43 -156 -51 -182 l-16 -48 -131 0 c-73 0 -137 4 -143
8 -8 5 3 63 36 192 112 436 241 930 260 995 11 38 20 71 20 72 0 2 80 4 178 5
97 2 230 4 294 6 64 1 146 -2 183 -8z m1130 -2 c10 -9 -55 -100 -252 -350
l-163 -208 75 -347 c41 -191 71 -351 66 -356 -4 -4 -79 -6 -167 -5 l-159 3
-11 55 c-7 30 -31 156 -55 280 -50 266 -36 275 -141 -90 l-71 -250 -159 0
c-147 0 -159 1 -154 18 3 9 10 40 16 67 10 48 67 254 152 550 22 77 69 244
105 370 36 127 67 238 70 248 5 15 21 17 160 17 142 0 154 -1 149 -17 -31
-108 -96 -370 -94 -381 2 -7 72 64 155 160 206 233 208 236 235 241 34 7 235
3 243 -5z"/>
<path d="M5464 3719 c-23 -6 -49 -18 -59 -28 -9 -11 -46 -129 -81 -263 -36
-133 -80 -294 -99 -357 -54 -177 -46 -211 48 -211 102 1 112 18 204 365 109
409 116 444 98 471 -8 13 -22 24 -29 24 -8 0 -20 2 -28 4 -7 2 -32 0 -54 -5z"/>
<path d="M6324 3672 c-7 -18 -28 -85 -46 -148 -27 -98 -30 -117 -17 -125 22
-13 125 -11 162 5 30 12 37 24 65 102 36 99 41 164 16 185 -10 8 -44 14 -91
14 l-75 0 -14 -33z"/>
<path d="M10395 4003 c-94 -12 -179 -48 -288 -121 l-67 -45 -40 46 c-79 89
-202 124 -397 114 -139 -8 -226 -35 -351 -111 l-91 -55 -35 49 c-21 29 -53 58
-78 71 -48 24 -84 26 -508 21 l-245 -2 -79 -63 c-248 -195 -230 -178 -248
-237 -44 -148 -358 -1328 -358 -1348 0 -12 342 -22 382 -11 14 4 102 67 195
141 l168 134 23 72 23 72 52 0 c29 0 69 3 90 6 l37 7 0 -86 c0 -178 81 -289
242 -333 80 -22 256 -20 350 5 100 26 210 72 277 116 l53 35 51 -46 c102 -91
191 -124 338 -124 152 0 272 41 452 154 58 36 110 66 115 66 6 0 3 -30 -8 -72
-10 -40 -21 -85 -24 -100 l-6 -28 187 0 187 0 173 132 c125 94 175 138 180
157 3 14 55 206 114 426 98 362 111 402 137 425 15 14 80 70 143 126 l114 100
33 126 c17 69 32 136 32 148 l0 23 -407 -8 c-388 -7 -409 -8 -444 -28 l-36
-21 -59 26 c-33 15 -77 31 -99 37 -38 10 -214 13 -280 4z m-575 -64 c133 -38
165 -75 164 -188 -1 -95 -40 -246 -210 -821 -14 -47 -39 -107 -56 -133 -79
-124 -244 -199 -438 -200 -174 -1 -280 42 -327 132 -37 70 -31 125 38 375 105
383 178 636 189 655 18 35 115 114 166 137 161 71 327 87 474 43z m824 16
c129 -27 184 -80 194 -188 5 -50 -9 -142 -34 -219 l-16 -48 -138 0 -139 0 6
89 c6 86 5 90 -20 115 -37 37 -89 36 -128 -3 -33 -34 -37 -71 -14 -127 8 -19
73 -96 146 -170 170 -176 194 -221 187 -357 -7 -129 -34 -195 -112 -273 -43
-43 -87 -74 -152 -106 -110 -55 -199 -73 -331 -66 -151 8 -250 68 -283 172
-16 51 -7 152 20 234 l22 62 148 0 148 0 -5 -77 c-6 -86 0 -97 64 -122 26 -11
37 -10 66 4 43 20 62 55 62 116 0 55 -17 81 -182 284 -57 69 -115 148 -129
177 -24 46 -26 60 -21 123 15 194 119 305 348 369 99 28 195 32 293 11z
m-1596 -52 c33 -21 62 -89 62 -148 0 -69 -69 -338 -120 -470 -47 -119 -84
-166 -160 -202 -76 -35 -149 -47 -286 -46 l-131 0 -54 -191 -54 -191 -142 -3
c-111 -2 -143 0 -143 10 0 17 286 1104 326 1240 5 16 30 18 292 21 328 3 378
1 410 -20z m2592 9 c0 -25 -47 -193 -57 -203 -5 -5 -53 -10 -108 -11 l-99 -3
-78 -290 c-156 -579 -202 -740 -212 -747 -15 -11 -264 -10 -270 0 -5 9 12 78
124 492 38 140 87 324 109 408 l39 152 -94 0 c-79 0 -94 3 -94 16 0 14 34 161
45 192 3 9 82 12 350 12 322 0 345 -1 345 -18z"/>
<path d="M9503 3705 c-19 -8 -39 -28 -51 -52 -26 -51 -192 -643 -199 -708 -5
-45 -2 -56 17 -75 19 -19 30 -22 86 -18 67 4 94 20 120 69 7 15 54 185 103
379 94 368 96 386 52 409 -27 15 -90 13 -128 -4z"/>
<path d="M8613 3704 c-25 -6 -29 -18 -99 -277 -28 -106 -34 -141 -25 -150 18
-18 121 -13 159 7 38 20 58 60 97 194 38 129 42 183 17 205 -20 19 -105 30
-149 21z"/>
</g>
</svg>
